<svg version="1.0" preserveAspectRatio="xMidYMid meet" viewBox="398.73678290213724 135.93599999999998 328.4392575928009 285.696" zoomAndPan="magnify" xmlns:xlink="http://www.w3.org/1999/xlink" xmlns="http://www.w3.org/2000/svg" style="max-height: 500px" width="328.4392575928009" height="285.696"><defs><clipPath id="7fed7663d4"><path clip-rule="nonzero" d="M 0 0.140625 L 1024 0.140625 L 1024 575.859375 L 0 575.859375 Z M 0 0.140625"/></clipPath><clipPath id="5c444d6ade"><path clip-rule="nonzero" d="M 403.757812 379.601562 L 476.472656 379.601562 L 476.472656 416.332031 L 403.757812 416.332031 Z M 403.757812 379.601562"/></clipPath><clipPath id="dd3f34f790"><path clip-rule="nonzero" d="M 658.1875 219.035156 L 692.835938 219.035156 L 692.835938 358.605469 L 658.1875 358.605469 Z M 658.1875 219.035156"/></clipPath><clipPath id="d60e00db94"><path clip-rule="nonzero" d="M 0.1875 0.0351562 L 34.835938 0.0351562 L 34.835938 139.605469 L 0.1875 139.605469 Z M 0.1875 0.0351562"/></clipPath><clipPath id="5167a6ec5d"><rect height="140" y="0" width="35" x="0"/></clipPath><clipPath id="8771b0311f"><path clip-rule="nonzero" d="M 546.703125 265.058594 L 581.347656 265.058594 L 581.347656 358.605469 L 546.703125 358.605469 Z M 546.703125 265.058594"/></clipPath><clipPath id="e3c9a8295e"><path clip-rule="nonzero" d="M 0.703125 0.0585938 L 35.347656 0.0585938 L 35.347656 93.605469 L 0.703125 93.605469 Z M 0.703125 0.0585938"/></clipPath><clipPath id="adf0109d23"><rect height="94" y="0" width="36" x="0"/></clipPath><clipPath id="2afd3c0751"><path clip-rule="nonzero" d="M 600.839844 244.601562 L 635.488281 244.601562 L 635.488281 358.605469 L 600.839844 358.605469 Z M 600.839844 244.601562"/></clipPath><clipPath id="3266efe1f0"><path clip-rule="nonzero" d="M 0.839844 0.601562 L 35.488281 0.601562 L 35.488281 114.605469 L 0.839844 114.605469 Z M 0.839844 0.601562"/></clipPath><clipPath id="c6a9804898"><rect height="115" y="0" width="36" x="0"/></clipPath><clipPath id="69fceea608"><path clip-rule="nonzero" d="M 492.5625 311.832031 L 527.210938 311.832031 L 527.210938 360.105469 L 492.5625 360.105469 Z M 492.5625 311.832031"/></clipPath><clipPath id="741c4a9572"><path clip-rule="nonzero" d="M 0.5625 0.832031 L 35.210938 0.832031 L 35.210938 49.105469 L 0.5625 49.105469 Z M 0.5625 0.832031"/></clipPath><clipPath id="b72bd9ac48"><rect height="50" y="0" width="36" x="0"/></clipPath></defs><g clip-path="url(#7fed7663d4)"><path fill-rule="nonzero" fill-opacity="1" d="M 0 0.140625 L 1024 0.140625 L 1024 575.859375 L 0 575.859375 Z M 0 0.140625" fill="#ffffff"/><path fill-rule="nonzero" fill-opacity="1" d="M 0 0.140625 L 1024 0.140625 L 1024 575.859375 L 0 575.859375 Z M 0 0.140625" fill="#6256e3"/></g><path stroke-miterlimit="4" stroke-opacity="1" stroke-width="10" stroke="#ffffff" d="M 0.000246122 4.99911 L 234.48443 4.99911" stroke-linejoin="miter" fill="none" transform="matrix(0, 0.749634, -0.749634, 0, 410.981878, 208.363097)" stroke-linecap="butt"/><path stroke-miterlimit="4" stroke-opacity="1" stroke-width="10" stroke="#ffffff" d="M -0.000179907 4.998894 L 208.434838 4.998894" stroke-linejoin="miter" fill="none" transform="matrix(0, 0.749634, -0.749634, 0, 445.649685, 215.85951)" stroke-linecap="butt"/><path stroke-miterlimit="4" stroke-opacity="1" stroke-width="10" stroke="#ffffff" d="M 0.000246122 4.999398 L 234.48443 4.999398" stroke-linejoin="miter" fill="none" transform="matrix(0, 0.749634, -0.749634, 0, 477.134438, 208.363097)" stroke-linecap="butt"/><path stroke-miterlimit="4" stroke-opacity="1" stroke-width="10" stroke="#ffffff" d="M -0.00248612 5.002186 L 412.751052 4.999981" stroke-linejoin="miter" fill="none" transform="matrix(-0.749634, 0.000525972, -0.000525972, -0.749634, 719.086705, 379.601372)" stroke-linecap="butt"/><path stroke-miterlimit="4" stroke-opacity="1" stroke-width="10" stroke="#ffffff" d="M -0.000807695 5.000381 L 99.675319 4.999933" stroke-linejoin="miter" fill="none" transform="matrix(-0.329469, 0.673351, -0.673351, -0.329469, 443.39409, 143.968324)" stroke-linecap="butt"/><path stroke-miterlimit="4" stroke-opacity="1" stroke-width="10" stroke="#ffffff" d="M 0.00153016 5.000707 L 100.839111 5.001641" stroke-linejoin="miter" fill="none" transform="matrix(0.348067, 0.663928, -0.663928, 0.348067, 442.362546, 141.973245)" stroke-linecap="butt"/><path stroke-miterlimit="4" stroke-opacity="1" stroke-width="10" stroke="#ffffff" d="M 0.00151222 5.000247 L 48.535606 5.000247" stroke-linejoin="miter" fill="none" transform="matrix(-0.749634, 0, 0, -0.749634, 456.680821, 179.142887)" stroke-linecap="butt"/><path stroke-miterlimit="4" stroke-opacity="1" stroke-width="10" stroke="#ffffff" d="M -0.00132731 5.002463 L 48.534406 4.999215" stroke-linejoin="miter" fill="none" transform="matrix(-0.677958, -0.319881, 0.319881, -0.677958, 438.566878, 222.508225)" stroke-linecap="butt"/><path stroke-miterlimit="4" stroke-opacity="1" stroke-width="10" stroke="#ffffff" d="M -0.000138147 5.000865 L 48.532093 4.99747" stroke-linejoin="miter" fill="none" transform="matrix(0.714103, -0.228052, 0.228052, 0.714103, 436.45339, 215.463991)" stroke-linecap="butt"/><path stroke-miterlimit="4" stroke-opacity="1" stroke-width="10" stroke="#ffffff" d="M -0.000841761 4.999242 L 156.195432 4.999433" stroke-linejoin="miter" fill="none" transform="matrix(-0.528756, 0.531383, -0.531383, -0.528756, 580.402163, 216.698515)" stroke-linecap="butt"/><path stroke-miterlimit="4" stroke-opacity="1" stroke-width="10" stroke="#ffffff" d="M -0.00261465 4.998437 L 69.351898 5.002481" stroke-linejoin="miter" fill="none" transform="matrix(-0.696731, -0.276618, 0.276618, -0.696731, 622.431929, 237.770905)" stroke-linecap="butt"/><path stroke-miterlimit="4" stroke-opacity="1" stroke-width="10" stroke="#ffffff" d="M 27.499404 5.002701 L 132.113949 4.99795" stroke-linejoin="miter" fill="none" transform="matrix(-0.497051, 0.561152, -0.561152, -0.497051, 689.585256, 159.664624)" stroke-linecap="butt"/><path stroke-miterlimit="4" stroke-opacity="1" stroke-width="10" stroke="#ffffff" d="M 25.000986 -9.999142 L 5.000371 5.001938 L 25.000117 19.997117 Z M 25.000986 -9.999142" stroke-linejoin="round" fill-rule="nonzero" fill="#ffffff" fill-opacity="1" transform="matrix(-0.497051, 0.561152, -0.561152, -0.497051, 689.585256, 159.664624)" stroke-linecap="round"/><g clip-path="url(#5c444d6ade)"><path fill-rule="nonzero" fill-opacity="1" d="M 476.273438 379.601562 L 476.273438 379.773438 C 476.273438 384.664062 475.3125 389.410156 473.425781 393.878906 C 471.597656 398.195312 468.984375 402.070312 465.65625 405.398438 C 462.328125 408.730469 458.453125 411.339844 454.136719 413.167969 C 449.667969 415.058594 444.921875 416.015625 440.03125 416.015625 C 435.136719 416.015625 430.390625 415.058594 425.921875 413.167969 C 421.605469 411.339844 417.730469 408.730469 414.402344 405.398438 C 411.074219 402.070312 408.460938 398.195312 406.636719 393.878906 C 404.746094 389.410156 403.785156 384.664062 403.785156 379.773438 L 403.785156 379.601562 Z M 476.273438 379.601562" fill="#ffffff"/></g><g clip-path="url(#dd3f34f790)"><g transform="matrix(1, 0, 0, 1, 658, 219)"><g clip-path="url(#5167a6ec5d)"><g clip-path="url(#d60e00db94)"><path fill-rule="nonzero" fill-opacity="1" d="M 0.1875 0.0351562 L 34.835938 0.0351562 L 34.835938 139.574219 L 0.1875 139.574219 Z M 0.1875 0.0351562" fill="#ffffff"/></g></g></g></g><g clip-path="url(#8771b0311f)"><g transform="matrix(1, 0, 0, 1, 546, 265)"><g clip-path="url(#adf0109d23)"><g clip-path="url(#e3c9a8295e)"><path fill-rule="nonzero" fill-opacity="1" d="M 0.703125 0.0585938 L 35.347656 0.0585938 L 35.347656 93.582031 L 0.703125 93.582031 Z M 0.703125 0.0585938" fill="#ffffff"/></g></g></g></g><g clip-path="url(#2afd3c0751)"><g transform="matrix(1, 0, 0, 1, 600, 244)"><g clip-path="url(#c6a9804898)"><g clip-path="url(#3266efe1f0)"><path fill-rule="nonzero" fill-opacity="1" d="M 0.839844 0.601562 L 35.488281 0.601562 L 35.488281 114.5625 L 0.839844 114.5625 Z M 0.839844 0.601562" fill="#ffffff"/></g></g></g></g><g clip-path="url(#69fceea608)"><g transform="matrix(1, 0, 0, 1, 492, 311)"><g clip-path="url(#b72bd9ac48)"><g clip-path="url(#741c4a9572)"><path fill-rule="nonzero" fill-opacity="1" d="M 0.5625 0.832031 L 35.210938 0.832031 L 35.210938 49.148438 L 0.5625 49.148438 Z M 0.5625 0.832031" fill="#ffffff"/></g></g></g></g></svg>