<?xml version="1.0" encoding="UTF-8"?>
<svg version="1.1" xmlns="http://www.w3.org/2000/svg" width="427" height="374">
<path d="M0 0 C140.91 0 281.82 0 427 0 C427 123.42 427 246.84 427 374 C286.09 374 145.18 374 0 374 C0 250.58 0 127.16 0 0 Z " fill="#FCFCFD" transform="translate(0,0)"/>
<path d="M0 0 C2.39771202 2.05841315 4.3899804 4.277905 6 7 C6 8.32 6 9.64 6 11 C6.66 11 7.32 11 8 11 C8.39832031 12.09634766 8.39832031 12.09634766 8.8046875 13.21484375 C10.33873737 16.78928021 12.48476021 19.67872402 14.7578125 22.81640625 C16 25 16 25 16 29 C16.66 29 17.32 29 18 29 C21.79310345 35.44827586 21.79310345 35.44827586 22.9375 38.5 C24.20336457 41.47850487 25.9641291 43.73545636 27.9765625 46.25390625 C29 48 29 48 29 52 C29.66 52 30.32 52 31 52 C33.43160605 55.36683915 34 56.73350364 34 61 C35.485 61.495 35.485 61.495 37 62 C38.31011999 64.28176799 39.45900131 66.4971383 40.5625 68.875 C42.2289989 72.37783207 43.84133702 75.76200554 46 79 C46.19004809 81.99869821 46.26067008 84.90381639 46.24050903 87.90263367 C46.24222107 88.82177048 46.24393311 89.74090729 46.24569702 90.68789673 C46.24901834 93.79030001 46.23794263 96.89248936 46.22705078 99.99487305 C46.22643839 102.2480077 46.22670462 104.50114275 46.2277813 106.75427723 C46.22823383 112.80191806 46.21662086 118.84948015 46.20256042 124.89710236 C46.19119191 130.56669876 46.19063535 136.23627577 46.18920898 141.90588379 C46.17870374 158.49976634 46.15078157 175.09363415 46.125 191.6875 C46.08375 228.750625 46.0425 265.81375 46 304 C149.95 304 253.9 304 361 304 C361 307.3 361 310.6 361 314 C256.72 314 152.44 314 45 314 C45 319.94 45 325.88 45 332 C44.14433717 335.7486181 43.45854439 338.59218601 42 342 C41.608125 342.99 41.21625 343.98 40.8125 345 C37.99953384 349.65594399 34.70838036 354.01604998 31 358 C30.34 358 29.68 358 29 358 C29 358.66 29 359.32 29 360 C16.02742613 369.33841311 2.70359055 372.64105635 -13 371 C-25.77693169 368.67427865 -35.29732006 360.88243584 -43.1171875 350.8203125 C-46.34198467 345.9898072 -49 340.88867042 -49 335 C-49.66 335 -50.32 335 -51 335 C-51.98702303 329.23032429 -52.1557803 323.63267031 -52.1673584 317.78596497 C-52.17315178 316.77164624 -52.17894517 315.75732752 -52.18491411 314.71227187 C-52.20291978 311.32096247 -52.21382937 307.92966959 -52.22460938 304.53833008 C-52.23578968 302.10359549 -52.24730316 299.66886242 -52.25912476 297.23413086 C-52.29561737 289.24595204 -52.32096436 281.25775778 -52.34375 273.26953125 C-52.3457249 272.58947815 -52.3476998 271.90942505 -52.34973454 271.20876428 C-52.38891197 257.68923263 -52.42257038 244.16969139 -52.44481659 230.65012074 C-52.44978528 227.68235574 -52.45482971 224.71459089 -52.45996094 221.74682617 C-52.46123161 221.00926933 -52.46250228 220.27171249 -52.46381146 219.51180544 C-52.48516687 207.5668452 -52.53416561 195.6221602 -52.59420508 183.6773384 C-52.65542376 171.39608699 -52.69001777 159.11497744 -52.6992898 146.83357543 C-52.70518716 139.94504006 -52.72280821 133.05697174 -52.77067566 126.16858864 C-52.81567972 119.68665125 -52.82481215 113.20528023 -52.81004715 106.72319794 C-52.8103753 104.34967696 -52.82261203 101.97612184 -52.84789658 99.60273552 C-52.97830641 86.67519994 -53.04941594 77.5648433 -45 67 C-44.02325202 65.12408591 -43.08111402 63.22941008 -42.1875 61.3125 C-39.51255363 55.86482854 -36.5004063 50.6958188 -33.38671875 45.49365234 C-28.24463555 36.83718214 -23.44422442 27.98949526 -18.62158203 19.15258789 C-7.40063869 -1.37686301 -7.40063869 -1.37686301 0 0 Z " fill="#0A0A0A" transform="translate(62,1)"/>
<path d="M0 0 C14.52 0 29.04 0 44 0 C44.02254443 25.40757231 44.04097766 50.81513657 44.05181217 76.22271633 C44.05697579 88.01900528 44.06401972 99.81528758 44.07543945 111.61157227 C44.0853843 121.88920997 44.09185295 132.16684287 44.09408849 142.44448525 C44.09539594 147.89001788 44.09848393 153.33553675 44.10573006 158.78106499 C44.11248713 163.90025209 44.1146176 169.0194197 44.11310768 174.13861084 C44.11338415 176.02327136 44.11539112 177.9079325 44.11920547 179.79258919 C44.12413785 182.35401437 44.12299999 184.91536468 44.12025452 187.47679138 C44.12316736 188.23261346 44.1260802 188.98843553 44.12908131 189.76716131 C44.11412121 194.88587879 44.11412121 194.88587879 43 196 C28.81 196 14.62 196 0 196 C0 131.32 0 66.64 0 0 Z " fill="#675AE3" transform="translate(352,93)"/>
<path d="M0 0 C14.52 0 29.04 0 44 0 C44 50.49 44 100.98 44 153 C29.48 153 14.96 153 0 153 C0 102.51 0 52.02 0 0 Z " fill="#675AE3" transform="translate(278,136)"/>
<path d="M0 0 C0 70.29 0 140.58 0 213 C-10.23 213 -20.46 213 -31 213 C-31 146.01 -31 79.02 -31 10 C-25.10994057 7.47568881 -19.31378482 5.32675307 -13.25 3.3125 C-12.30511719 2.99216797 -11.36023438 2.67183594 -10.38671875 2.34179688 C-9.48050781 2.03951172 -8.57429688 1.73722656 -7.640625 1.42578125 C-6.82110352 1.15161377 -6.00158203 0.87744629 -5.15722656 0.5949707 C-3 0 -3 0 0 0 Z " fill="#F9F9F9" transform="translate(96,92)"/>
<path d="M0 0 C4.455 0.99 4.455 0.99 9 2 C9 2.66 9 3.32 9 4 C10.2375 4.268125 11.475 4.53625 12.75 4.8125 C16.67702906 5.68795234 20.59124636 6.6086893 24.5 7.5625 C25.5209375 7.81128906 26.541875 8.06007813 27.59375 8.31640625 C30 9 30 9 31 10 C31.09780042 12.61762734 31.12994511 15.20885307 31.12025452 17.82691956 C31.12110894 18.65673511 31.12196337 19.48655066 31.12284368 20.34151214 C31.12450103 23.14379319 31.11897297 25.94601541 31.11352539 28.74829102 C31.11324355 30.74841307 31.1134012 32.74853523 31.1139679 34.74865723 C31.11425598 40.19678035 31.10835745 45.64488166 31.10139394 51.0929997 C31.09516226 56.77984842 31.09455675 62.46669758 31.09336853 68.15354919 C31.09025466 78.93059959 31.08204053 89.7076399 31.07201904 100.48468584 C31.06085962 112.75049607 31.05534789 125.01630678 31.05032361 137.28212082 C31.03985796 162.52141967 31.02205711 187.76070885 31 213 C20.77 213 10.54 213 0 213 C0 142.71 0 72.42 0 0 Z " fill="#FAFAFA" transform="translate(22,92)"/>
<path d="M0 0 C20.13 0 40.26 0 61 0 C57 2 57 2 54 3 C52.2878651 5.49345612 52.2878651 5.49345612 50.6640625 8.6328125 C50.34826233 9.21305679 50.03246216 9.79330109 49.70709229 10.39112854 C49.0264896 11.64412793 48.3501712 12.8994619 47.67767334 14.15682983 C46.26119575 16.80520026 44.82460161 19.44246465 43.38931274 22.08067322 C42.65836259 23.42500932 41.92853211 24.7699548 41.19979858 26.11549377 C37.82515659 32.34415738 34.36663174 38.52366949 30.875 44.6875 C30.36791504 45.58678223 29.86083008 46.48606445 29.33837891 47.41259766 C26.4141262 52.5788098 23.40119395 57.68309026 20.33447266 62.76586914 C18.74034902 65.43469925 17.22715417 68.13982992 15.75 70.875 C15.27046875 71.75929688 14.7909375 72.64359375 14.296875 73.5546875 C13.86890625 74.36164063 13.4409375 75.16859375 13 76 C12.64832768 76.61782341 12.29665535 77.23564682 11.93432629 77.87219214 C10.8845862 80.26284006 10.75135903 81.88892483 10.75390434 84.49023819 C10.74992225 85.38995165 10.74594015 86.28966511 10.74183738 87.21664262 C10.74766307 88.20107402 10.75348875 89.18550541 10.75949097 90.19976807 C10.75778212 91.24857517 10.75607327 92.29738227 10.75431263 93.37797141 C10.75101012 96.90341694 10.7620341 100.42867347 10.77294922 103.95410156 C10.77351317 106.47682694 10.77319709 108.99955265 10.77206421 111.52227783 C10.77160831 116.95923531 10.7772927 122.39613158 10.78853989 127.83307648 C10.80479084 135.69398224 10.81000248 143.55486478 10.81251587 151.41578552 C10.81689361 164.16945611 10.83020485 176.92310112 10.84912109 189.67675781 C10.86747785 202.06607943 10.88163535 214.4553941 10.89013672 226.84472656 C10.89092489 227.99015652 10.89092489 227.99015652 10.89172898 229.15872648 C10.89433905 232.98956614 10.89686647 236.82040585 10.89935279 240.65124559 C10.92008775 272.43418249 10.95546405 304.21708727 11 336 C11.66 336 12.32 336 13 336 C13.1959375 336.66644531 13.391875 337.33289063 13.59375 338.01953125 C17.43403863 349.85490352 24.35102215 359.3795211 35 366 C38.59798429 367.62428687 42.21648441 368.88572003 46 370 C46.99 370.33 47.98 370.66 49 371 C58.84527435 371.61596075 67.5522574 371.59719382 76.8125 367.77734375 C77.8953125 367.39255859 77.8953125 367.39255859 79 367 C79.66 367.33 80.32 367.66 81 368 C79.50292061 368.63196384 78.00213297 369.25514393 76.5 369.875 C75.6646875 370.22304688 74.829375 370.57109375 73.96875 370.9296875 C50.75391486 379.29924649 24.6774814 374 0 374 C0 250.58 0 127.16 0 0 Z " fill="#FBFBFB" transform="translate(0,0)"/>
<path d="M0 0 C14.19 0 28.38 0 43 0 C43 42.9 43 85.8 43 130 C28.81 130 14.62 130 0 130 C0 87.1 0 44.2 0 0 Z " fill="#6457E2" transform="translate(205,158)"/>
<path d="M0 0 C-0.26041335 1.52265216 -0.53397316 3.04305684 -0.8125 4.5625 C-1.03873047 5.83287109 -1.03873047 5.83287109 -1.26953125 7.12890625 C-2 10 -2 10 -3.3515625 12.98828125 C-5.85866116 18.60991188 -7.08372623 24.67174302 -8.5625 30.625 C-9.16490551 33.03462205 -9.77026266 35.44350856 -10.37890625 37.8515625 C-10.6426001 38.91197754 -10.90629395 39.97239258 -11.17797852 41.06494141 C-11.94698903 43.81072235 -12.88615893 46.37773793 -14 49 C-16.33088789 46.12145363 -17.83224797 43.38015172 -19.1875 39.9375 C-19.70376953 38.65166016 -19.70376953 38.65166016 -20.23046875 37.33984375 C-21 35 -21 35 -21 32 C-25.45563631 35.63725413 -29.32678893 39.35373171 -33.05078125 43.73046875 C-35.31653762 46.36855382 -37.65355537 48.93346525 -40 51.5 C-42.84524228 54.61907011 -45.6719958 57.74755391 -48.4375 60.9375 C-52.71327089 65.85413585 -57.13893717 70.63357283 -61.55175781 75.42675781 C-68.02192266 82.45537249 -74.48362414 89.49127832 -80.85546875 96.609375 C-82.32910912 98.25212164 -83.81138443 99.88715038 -85.30078125 101.515625 C-86.02652344 102.31484375 -86.75226563 103.1140625 -87.5 103.9375 C-88.1496875 104.64777344 -88.799375 105.35804687 -89.46875 106.08984375 C-91.20062458 108.0241396 -91.20062458 108.0241396 -92 111 C-99.33609372 110.46784812 -105.73113575 108.70865327 -112.6875 106.375 C-114.89831251 105.64935866 -117.1092527 104.92410623 -119.3203125 104.19921875 C-120.43051758 103.83231934 -121.54072266 103.46541992 -122.68457031 103.08740234 C-128.68643153 101.11889794 -134.71581609 99.23671086 -140.74291992 97.34716797 C-144.6847324 96.10023334 -148.54097993 94.79699716 -152.37109375 93.23828125 C-156.32768816 91.82937736 -156.32768816 91.82937736 -160 93 C-162.16983584 94.74028836 -162.16983584 94.74028836 -164.32641602 96.9992981 C-165.18437775 97.86036163 -166.04233948 98.72142517 -166.92630005 99.60858154 C-167.86895581 100.56982827 -168.81148704 101.53119713 -169.75390625 102.49267578 C-170.75223572 103.50003725 -171.75126674 104.50670388 -172.75094604 105.51272583 C-174.90173656 107.67977659 -177.04787329 109.85129809 -179.19064331 112.02627945 C-182.5771055 115.46281344 -185.97601937 118.88684532 -189.37719727 122.30880737 C-198.43476411 131.42557959 -207.47622348 140.55827021 -216.50906658 149.6995362 C-222.44510802 155.70672941 -228.38816293 161.70678472 -234.34496593 167.6933974 C-237.72972176 171.09625683 -241.1026893 174.51026537 -244.46742249 177.93291879 C-246.55965863 180.05599824 -248.66218599 182.16864498 -250.76779556 184.27845383 C-251.7445337 185.26137712 -252.71694215 186.24862405 -253.68471909 187.2403717 C-255.00277776 188.58986212 -256.33774261 189.92277922 -257.67358398 191.25466919 C-258.41688461 192.00647524 -259.16018524 192.75828129 -259.92601013 193.53286934 C-262 195 -262 195 -264.12586975 194.84736443 C-266.75223809 193.65988501 -268.24351144 192.27692962 -270 190 C-269.70562136 186.12835922 -267.6179043 184.24746622 -264.95169067 181.59092712 C-264.07957947 180.71469193 -263.20746826 179.83845673 -262.30892944 178.93566895 C-261.33515994 177.97251674 -260.36124766 177.00950888 -259.38720703 176.04663086 C-258.36666525 175.02693534 -257.34678371 174.00657867 -256.32751465 172.98561096 C-253.5572794 170.21451399 -250.77788179 167.45277372 -247.99677515 164.69259334 C-245.08867314 161.80324315 -242.18906245 158.90539721 -239.2885437 156.00843811 C-233.79095613 150.52018088 -228.28576729 145.0396143 -222.77781665 139.56175953 C-216.52018932 133.33759196 -210.27101089 127.10497139 -204.02256227 120.87159145 C-191.68725518 108.56637821 -179.34232934 96.27086095 -166.99055672 83.98217678 C-165.75837375 82.75518111 -164.54851547 81.50472917 -163.37704277 80.21964359 C-162.92261866 79.81716121 -162.46819454 79.41467882 -162 79 C-159.66503906 79.20361328 -159.66503906 79.20361328 -157 80 C-156.10249023 80.26409668 -155.20498047 80.52819336 -154.28027344 80.80029297 C-152.83442871 81.26653076 -152.83442871 81.26653076 -151.359375 81.7421875 C-149.75255859 82.25845703 -149.75255859 82.25845703 -148.11328125 82.78515625 C-147.00339844 83.14480469 -145.89351563 83.50445312 -144.75 83.875 C-143.65558594 84.22691406 -142.56117188 84.57882813 -141.43359375 84.94140625 C-136.66022836 86.47917306 -131.89277003 88.0306262 -127.140625 89.6328125 C-123.45605826 90.8675633 -119.74274096 91.9528979 -116 93 C-114.83339844 93.35320312 -113.66679687 93.70640625 -112.46484375 94.0703125 C-111.30082031 94.41835937 -110.13679687 94.76640625 -108.9375 95.125 C-107.77089844 95.47820312 -106.60429687 95.83140625 -105.40234375 96.1953125 C-102.0462393 96.98906396 -99.42431344 97.40513004 -96 97 C-94.10251205 95.64902797 -94.10251205 95.64902797 -92.6875 93.625 C-92.09839844 92.89023438 -91.50929688 92.15546875 -90.90234375 91.3984375 C-89.96068359 90.21121094 -89.96068359 90.21121094 -89 89 C-87.59529431 87.40604554 -86.17801422 85.82310657 -84.75 84.25 C-83.99460937 83.41210938 -83.23921875 82.57421875 -82.4609375 81.7109375 C-79.30445915 78.23380103 -76.12498804 74.77809705 -72.94628906 71.32128906 C-70.42843936 68.57727462 -67.93990872 65.81348326 -65.5 63 C-62.13609745 59.12105017 -58.6653774 55.34307314 -55.18969727 51.56469727 C-51.52359096 47.57767347 -47.89239695 43.56077562 -44.27734375 39.52734375 C-42.6109931 37.6780661 -40.9374155 35.83742538 -39.25390625 34.00390625 C-38.79508057 33.50318604 -38.33625488 33.00246582 -37.86352539 32.48657227 C-36.56687248 31.07290717 -35.26787429 29.66139429 -33.96875 28.25 C-31.97743103 26.16521364 -31.97743103 26.16521364 -31 24 C-32.08667969 23.70996094 -32.08667969 23.70996094 -33.1953125 23.4140625 C-38.18045615 22.07139714 -43.12594691 20.71250514 -48 19 C-48 18.34 -48 17.68 -48 17 C-47.11699219 16.69707031 -46.23398437 16.39414062 -45.32421875 16.08203125 C-39.48053706 14.04207792 -33.78080722 11.98203299 -28.1875 9.3125 C-24.13252415 7.39234967 -20.39536899 6.34826632 -16.00390625 5.53125 C-12.88573527 4.70460038 -10.56733575 2.89493829 -8 1 C-5.07175348 0.02391783 -3.04386724 -0.08226668 0 0 Z " fill="#0C0C0C" transform="translate(398,9)"/>
<path d="M0 0 C14.52 0 29.04 0 44 0 C44 21.78 44 43.56 44 66 C33.3884375 66.0309375 33.3884375 66.0309375 22.5625 66.0625 C19.20880249 66.07615601 19.20880249 66.07615601 15.78735352 66.09008789 C14.02620504 66.09300696 12.26505589 66.09555554 10.50390625 66.09765625 C9.58057495 66.10277222 8.65724365 66.10788818 7.70593262 66.11315918 C6.83303589 66.11328003 5.96013916 66.11340088 5.06079102 66.11352539 C4.29912125 66.115746 3.53745148 66.11796661 2.75270081 66.12025452 C1 66 1 66 0 65 C-0.09409479 62.97505769 -0.11743122 60.9468013 -0.11352539 58.91967773 C-0.11344986 57.61840439 -0.11337433 56.31713104 -0.11329651 54.97642517 C-0.10818909 53.54548098 -0.10297308 52.11453718 -0.09765625 50.68359375 C-0.09579203 49.2277074 -0.09436815 47.77182043 -0.09336853 46.31593323 C-0.08954365 42.47720621 -0.07971364 38.63851681 -0.06866455 34.79980469 C-0.05665498 30.19764229 -0.05204804 25.59546734 -0.04621124 20.99329376 C-0.03650185 13.99550298 -0.01734513 6.9977948 0 0 Z " fill="#695CE3" transform="translate(131,224)"/>
<path d="M0 0 C24.42 0 48.84 0 74 0 C74 15.5125 74 15.5125 70 23 C69.5875 23.78246094 69.175 24.56492187 68.75 25.37109375 C64.05304409 33.28386322 56.49131765 39.03769498 47.6015625 41.56640625 C37.38483172 43.26919471 24.68920285 43.27837339 15.69140625 37.5234375 C13.60882327 35.79910604 11.80507403 34.01148384 10 32 C9.44570313 31.39027344 8.89140625 30.78054688 8.3203125 30.15234375 C0.61740424 20.82071111 0 12.24540492 0 0 Z " fill="#FAFAFA" transform="translate(22,317)"/>
<path d="M0 0 C2.15700274 -0.03662514 4.30377005 -0.14243883 6.45825195 -0.24975586 C16.4799724 -0.51737396 16.4799724 -0.51737396 20.10620117 2.88354492 C21.69229779 5.47823137 22.8266678 7.91893256 23.85864258 10.77563477 C25.41705051 14.78668425 27.16163211 17.68371126 29.83520508 21.02954102 C30.85864258 22.77563477 30.85864258 22.77563477 30.85864258 26.77563477 C31.51864258 26.77563477 32.17864258 26.77563477 32.85864258 26.77563477 C35.01058628 30.00355031 35.05950701 31.05964286 34.85864258 34.77563477 C31.09045948 36.1165427 27.31868736 37.44705266 23.54614258 38.77563477 C22.47428711 39.15719727 21.40243164 39.53875977 20.2980957 39.93188477 C19.27006836 40.29282227 18.24204102 40.65375977 17.18286133 41.02563477 C16.23499756 41.36079102 15.28713379 41.69594727 14.31054688 42.04125977 C11.85864258 42.77563477 11.85864258 42.77563477 8.85864258 42.77563477 C8.85864258 43.43563477 8.85864258 44.09563477 8.85864258 44.77563477 C4.9669991 46.07284926 1.96435032 45.90597469 -2.14135742 45.77563477 C-2.80135742 45.44563477 -3.46135742 45.11563477 -4.14135742 44.77563477 C-4.14135742 44.11563477 -4.14135742 43.45563477 -4.14135742 42.77563477 C-5.90479492 42.59000977 -5.90479492 42.59000977 -7.70385742 42.40063477 C-11.68256168 41.91127542 -15.31902301 40.97011427 -19.14135742 39.77563477 C-19.14135742 39.11563477 -19.14135742 38.45563477 -19.14135742 37.77563477 C-20.17196289 37.57647461 -20.17196289 37.57647461 -21.22338867 37.37329102 C-22.12444336 37.19668945 -23.02549805 37.02008789 -23.95385742 36.83813477 C-24.84717773 36.66411133 -25.74049805 36.49008789 -26.66088867 36.31079102 C-29.14135742 35.77563477 -29.14135742 35.77563477 -32.14135742 34.77563477 C-31.59397164 30.05555411 -29.43648841 26.58860117 -26.95385742 22.65063477 C-26.1329339 21.32108493 -25.31393523 19.99034477 -24.49682617 18.65844727 C-24.09512207 18.00392578 -23.69341797 17.3494043 -23.27954102 16.67504883 C-21.18395965 13.17791819 -19.30553807 9.56615882 -17.43041992 5.94750977 C-13.33225749 -0.957273 -7.33614903 0.08076342 0 0 Z " fill="#F8F8F8" transform="translate(57.141357421875,46.224365234375)"/>
<path d="M0 0 C0.99 0.33 1.98 0.66 3 1 C3 2.32 3 3.64 3 5 C3.66 5 4.32 5 5 5 C7 8 7 8 7 12 C7.66 12 8.32 12 9 12 C9 12.99 9 13.98 9 15 C3.72 15 -1.56 15 -7 15 C-6.10223293 10.51116463 -5.28090451 8.42697528 -2.9375 4.6875 C-2.38964844 3.80449219 -1.84179688 2.92148437 -1.27734375 2.01171875 C-0.64505859 1.01591797 -0.64505859 1.01591797 0 0 Z " fill="#D9D9D9" transform="translate(58,20)"/>
<path d="M0 0 C1.5159375 0.2475 1.5159375 0.2475 3.0625 0.5 C11.99299835 1.61631229 21.12881297 1.43857087 30 0 C29 2 29 2 27.25610352 2.61230469 C22.85037053 3.36939851 18.396613 3.22705923 13.9375 3.25 C12.93138672 3.270625 11.92527344 3.29125 10.88867188 3.3125 C9.44137695 3.32023437 9.44137695 3.32023437 7.96484375 3.328125 C6.64407837 3.34214355 6.64407837 3.34214355 5.29663086 3.35644531 C2.56586202 2.93262023 1.70322441 2.11810793 0 0 Z " fill="#797979" transform="translate(44,357)"/>
<path d="M0 0 C0 0.99 0 1.98 0 3 C-1.75 4.38671875 -1.75 4.38671875 -4 5.6875 C-4.7425 6.12449219 -5.485 6.56148437 -6.25 7.01171875 C-6.8275 7.33785156 -7.405 7.66398437 -8 8 C-4.23529412 0 -4.23529412 0 0 0 Z " fill="#B0B0B0" transform="translate(377,41)"/>
</svg>
